<?xml version="1.0" encoding="UTF-8"?>
<svg width="96px" height="48px" viewBox="0 0 96 48" version="1.1" xmlns="http://www.w3.org/2000/svg" xmlns:xlink="http://www.w3.org/1999/xlink">
    <title>Group 4 Copy 5</title>
    <g id="Page-1" stroke="none" stroke-width="1" fill="none" fill-rule="evenodd">
        <g id="Mobile" transform="translate(-40.000000, -84.000000)">
            <g id="Group-2" transform="translate(24.000000, 68.000000)">
                <g id="Group-4-Copy-5" transform="translate(16.000000, 16.000000)">
                    <g id="Group" fill-rule="nonzero">
                        <path d="M11.8264463,0 C11.9964267,0 12.163846,0.0109729922 12.3280355,0.032249744 C12.3497983,0.0320735192 12.3726292,0.0333311699 12.395541,0.0351182021 C17.7926609,0.456072959 22.1001667,4.58729552 22.8631829,9.83210489 L23.9012022,9.8031005 C23.5104818,7.14272887 22.2087235,4.71893442 20.2155978,2.91434362 C19.6063648,2.36273956 19.559326,1.42134001 20.1105337,0.811668882 C20.6617413,0.201997753 21.6024643,0.154925096 22.2116973,0.706529161 C25.2387612,3.44725526 27,7.33351571 27,11.5 C27,15.6335163 25.2666617,19.4919424 22.2811873,22.2301464 C21.6755104,22.7856584 20.7345045,22.7446386 20.1793917,22.1385261 C19.6242789,21.5324136 19.6652692,20.5907309 20.2709461,20.0352189 C22.336228,18.140993 23.6465936,15.5784583 23.9546543,12.7807947 L22.90973,12.8099952 C22.2599608,18.5444115 17.3958035,23 11.4917355,23 C5.14502525,23 0,17.8512746 0,11.5 C0,8.44191418 1.20044054,5.5713387 3.29663222,3.43811246 C3.5888169,3.02469718 4.08461623,2.77126433 4.62573867,2.81304593 C5.43635184,2.87563567 6.04490802,3.57725249 5.99624978,4.38624696 L5.99449421,4.41182922 C5.76261014,7.41933056 6.80118752,9.08708149 9.29549733,9.83912006 L9.37152825,9.86162925 L9.45565289,9.88605502 L9.47568994,9.88919198 L9.50766326,9.89368642 L9.56442058,9.90082084 L9.61150381,9.90612989 L9.68849711,9.91391443 L9.74403583,9.91897711 L9.8335973,9.92636745 L9.93058922,9.93349759 L10.0349288,9.94034978 L10.1465331,9.94690627 L10.2653193,9.95314931 L10.3838778,9.95873636 L10.5458215,9.96548779 L10.7616951,9.97316372 L10.9451303,9.97869196 L11.1878187,9.98483417 L11.3405639,9.98810871 L11.6070047,9.99287963 L11.8308188,9.99607668 L12.1238877,9.99929592 L12.5589583,10.0023471 L12.9548235,10.0036051 L13.3101749,10.0036832 L13.7719672,10.0025016 L14.257076,9.99990499 L14.7654958,9.9958931 L15.206982,9.99146868 L15.7581243,9.98486185 L16.5292172,9.97385066 L17.2378857,9.9621512 L17.9782432,9.9485245 L18.8631577,9.93059096 L19.7894375,9.91013963 L19.8596769,9.90861406 C19.3884833,7.41678061 17.8314132,5.29814608 15.6887696,4.08133277 C15.578949,6.12119513 13.8917363,7.74110032 11.8264463,7.74110032 C9.69033667,7.74110032 7.95867769,6.00819599 7.95867769,3.87055016 C7.95867769,1.73290433 9.69033667,0 11.8264463,0 Z M3.54640148,8.42395527 L3.53367729,8.45700324 C3.16886615,9.41283492 2.97520661,10.4406283 2.97520661,11.5 C2.97520661,16.2069317 6.78818649,20.0226537 11.4917355,20.0226537 C15.723708,20.0226537 19.2347357,16.9337026 19.8962253,12.8859245 L19.8111544,12.8877693 L18.8710165,12.9084367 L17.9729687,12.9265217 L17.2216936,12.9402276 L16.4025289,12.95347 L15.7202558,12.962938 L15.3448372,12.9674603 L14.7131394,12.9738199 L14.2816248,12.9771513 L13.7854699,12.9798166 L13.4678263,12.9807858 L13.0745256,12.9810898 L12.6205037,12.9802821 L12.2628896,12.9786307 L11.8579168,12.9753578 L11.6021943,12.9723306 L11.3575914,12.9685802 L11.1238614,12.9640665 L11.0109966,12.9615109 L10.7931133,12.9557771 L10.585486,12.9491795 L10.3878679,12.9416781 L10.2000123,12.9332327 L10.0653789,12.9262549 L9.93599396,12.9187067 L9.85260179,12.9133492 L9.73173307,12.9048124 L9.65392198,12.8987801 L9.57828935,12.8924692 L9.46885754,12.8824694 L9.36415378,12.8718143 L9.29692655,12.8643385 L9.23172356,12.856559 L9.16851398,12.8484706 L9.10726695,12.8400684 L9.04795163,12.8313474 C9.038225,12.8298671 9.02857758,12.8283732 9.01900872,12.8268658 L8.96253314,12.8176571 L8.90791216,12.8081171 L8.85511494,12.7982406 L8.80411064,12.7880227 L8.75486841,12.7774584 L8.70735741,12.7665426 L8.6615468,12.7552703 L8.61740573,12.7436365 L8.57490336,12.7316362 L8.55425705,12.725497 L8.55425705,12.725497 L8.5141549,12.7129375 L8.50581818,12.7101424 L8.42371848,12.685797 C5.98335506,11.9460288 4.34210966,10.490001 3.54640148,8.42395527 Z M11.8264463,2.97734628 C11.3334979,2.97734628 10.9338843,3.37724728 10.9338843,3.87055016 C10.9338843,4.36385305 11.3334979,4.76375405 11.8264463,4.76375405 C12.3193947,4.76375405 12.7190083,4.36385305 12.7190083,3.87055016 C12.7190083,3.37724728 12.3193947,2.97734628 11.8264463,2.97734628 Z" id="Combined-Shape" fill="#701EB1"></path>
                        <path d="M10.6658125,1.37489632 C10.7288782,0.55412078 11.4359536,-0.0593902347 12.2451097,0.00458111951 C18.1306652,0.469889348 22.7045455,5.46249232 22.7045455,11.4847081 C22.7045455,17.8444282 17.6219598,23 11.3522727,23 C5.08258562,23 0,17.8444282 0,11.4847081 C0,8.33878 1.25164703,5.39102574 3.42856334,3.23845124 C4.00972855,2.66378449 4.94012043,2.67581794 5.50665177,3.26532872 C6.06667125,3.84806351 6.0615163,4.77694319 5.49996931,5.35329731 L5.48015479,5.3732586 C3.86503677,6.97031672 2.93909974,9.15099128 2.93909974,11.4847081 C2.93909974,16.1978987 6.70580559,20.0186947 11.3522727,20.0186947 C15.9987399,20.0186947 19.7654457,16.1978987 19.7654457,11.4847081 C19.7654457,7.06673634 16.4426182,3.39553587 12.1471883,2.98821375 L12.0167285,2.9768723 C11.2075724,2.91290094 10.6027467,2.19567187 10.6658125,1.37489632 Z" id="Path-Copy-3" fill="#EB75C2"></path>
                    </g>
                    <path d="M33.3217213,21 C33.9836066,21 34.5968238,20.8799063 35.161373,20.6397188 C35.7259221,20.3995313 36.1834016,20.0685413 36.5338115,19.6467487 L36.5338115,19.6467487 L36.5338115,20.8769772 L39.2786885,20.8769772 L39.2786885,11.1405975 L36.5338115,11.1405975 L36.5338115,16.5008787 C36.5338115,17.2741652 36.3196721,17.8687756 35.8913934,18.28471 C35.4631148,18.7006444 34.8726093,18.9086116 34.119877,18.9086116 C33.380123,18.9086116 32.7961066,18.7006444 32.3678279,18.28471 C31.9395492,17.8687756 31.7254098,17.2741652 31.7254098,16.5008787 L31.7254098,16.5008787 L31.7254098,11.1405975 L29,11.1405975 L29,16.8523726 C29,17.7193907 29.1849385,18.4663152 29.5548156,19.0931459 C29.9246926,19.7199766 30.4340847,20.1944933 31.0829918,20.516696 C31.7318989,20.8388987 32.4781421,21 33.3217213,21 Z M44.6905738,20.8769772 L44.6905738,16.026362 C44.6905738,15.1241945 44.9079577,14.4915056 45.3427254,14.1282953 C45.7774932,13.7650849 46.4231557,13.5834798 47.2797131,13.5834798 L47.2797131,13.5834798 L48,13.5834798 L48,11 C47.273224,11 46.6275615,11.1464558 46.0630123,11.4393673 C45.4984631,11.7322789 45.0409836,12.1364968 44.6905738,12.6520211 L44.6905738,12.6520211 L44.6905738,11.1405975 L41.9651639,11.1405975 L41.9651639,20.8769772 L44.6905738,20.8769772 Z" id="ur" fill="#EB75C2" fill-rule="nonzero"></path>
                    <path d="M26.2364025,48 L27.8750047,43.2432046 L37.7778612,43.2432046 L39.4164633,48 L44.6884877,48 L35.7474194,23 L29.9410683,23 L21,48 L26.2364025,48 Z M36.4242333,39.2374821 L29.2286326,39.2374821 L32.8264329,28.7939914 L36.4242333,39.2374821 Z M53.371983,48 C55.9842473,48 58.2818525,47.4873629 60.2647986,46.4620887 C62.2477447,45.4368145 63.7794815,43.9883166 64.860009,42.1165951 C65.9405365,40.2448736 66.4808003,38.0572246 66.4808003,35.5536481 C66.4808003,33.0500715 65.9405365,30.8505007 64.860009,28.9549356 C63.7794815,27.0593705 62.2477447,25.5989509 60.2647986,24.5736767 C58.2818525,23.5484025 55.9842473,23.0357654 53.371983,23.0357654 L53.371983,23.0357654 L44.6802673,23.0357654 L44.6802673,48 L53.371983,48 Z M53.1938741,43.7439199 L49.6673173,43.7439199 L49.6673173,27.2560801 L53.1938741,27.2560801 C55.8061384,27.2560801 57.8247063,27.9892704 59.2495777,29.4556509 C60.6744492,30.9220315 61.3868849,32.9546972 61.3868849,35.5536481 C61.3868849,38.152599 60.6744492,40.167382 59.2495777,41.5979971 C57.8247063,43.0286123 55.8061384,43.7439199 53.1938741,43.7439199 L53.1938741,43.7439199 Z M70.5690852,48 L72.2076874,43.2432046 L82.1105439,43.2432046 L83.7491461,48 L89.0211704,48 L80.0801021,23 L74.273751,23 L65.3326827,48 L70.5690852,48 Z M80.756916,39.2374821 L73.5613153,39.2374821 L77.1591156,28.7939914 L80.756916,39.2374821 Z M94,48 L94,29.7907654 L89.01295,29.7907654 L89.01295,48 L94,48 Z" id="KADAI" fill="#EB75C2" fill-rule="nonzero"></path>
                    <polygon id="K" fill="#EB75C2" fill-rule="nonzero" points="5.90367776 48 5.90367776 36.8610315 14.8003503 48 21 48 10.6322242 35.3925501 20.7197898 23 14.8003503 23 5.90367776 34.2106017 5.90367776 23 1 23 1 48"></polygon>
                    <circle id="Oval" fill="#701EB1" cx="91.5" cy="27.5" r="4.5"></circle>
                </g>
            </g>
        </g>
    </g>
</svg>