<?xml version="1.0" encoding="UTF-8"?>
<svg width="148px" height="74px" viewBox="0 0 148 74" version="1.1" xmlns="http://www.w3.org/2000/svg" xmlns:xlink="http://www.w3.org/1999/xlink">
    <title>Group 4 Copy 5</title>
    <g id="Page-1" stroke="none" stroke-width="1" fill="none" fill-rule="evenodd">
        <g id="Desktop-HD-Copy" transform="translate(-332.000000, -262.000000)">
            <g id="Group-3" transform="translate(208.000000, 47.000000)">
                <g id="Group-2" transform="translate(84.000000, 153.000000)">
                    <g id="Group-4-Copy-5" transform="translate(40.000000, 62.000000)">
                        <g id="Group" fill-rule="nonzero">
                            <path d="M18.3966942,0 C18.6560107,0 18.9114955,0.0160604199 19.1621672,0.0472206328 C19.2014712,0.0483187437 19.2416314,0.0503642095 19.2819526,0.0534407423 C27.6778061,0.694049519 34.3785695,6.98116665 35.5650926,14.96285 L37.179576,14.9172835 C36.5717011,10.8690796 34.5467812,7.18087906 31.4464855,4.43487073 C30.4987897,3.59547324 30.4256182,2.16290871 31.2830524,1.2351483 C32.1404865,0.307387885 33.6038334,0.235755581 34.5515292,1.07515307 C39.2602952,5.24582323 42,11.1596978 42,17.5 C42,23.7901335 39.303696,29.6616516 34.6596247,33.8284836 C33.7174607,34.673828 32.2536736,34.6114065 31.3901648,33.6890615 C30.5266561,32.7667164 30.5904188,31.333721 31.5325828,30.4883766 C34.7452861,27.6058207 36.783644,23.7062465 37.2628146,19.4488664 L35.6374121,19.4930019 C34.6268768,28.2195137 27.0603033,35 17.8760331,35 C8.00337261,35 0,27.1649831 0,17.5 C0,12.8474224 1.86652442,8.48006017 5.125927,5.23406855 C5.58016536,4.60402075 6.35251655,4.21704084 7.19559348,4.28072207 C8.45654731,4.37596733 9.40319026,5.44364509 9.32749966,6.67472363 L9.32476878,6.71365316 C8.96406022,11.2902856 10.579625,13.8281675 14.4596625,14.972574 L14.5779328,15.0068271 L14.7087934,15.0439968 L14.7399621,15.0487704 L14.7896984,15.0556098 L14.8779876,15.0664665 L14.9512282,15.0745455 L15.0709955,15.0863915 L15.1573891,15.0940956 L15.2967069,15.1053418 L15.4475832,15.116192 L15.6098892,15.1266192 L15.7834959,15.1365965 L15.9682744,15.1460968 L16.1526988,15.1545988 L16.4046112,15.1648727 L16.7404147,15.1765535 L17.0257582,15.184966 L17.4032736,15.1943129 L17.6408771,15.1992959 L18.0553406,15.206556 L18.403496,15.211421 L18.8593809,15.2163199 L19.5361574,15.220963 L20.1519476,15.2228773 L20.7047165,15.2229961 L21.4230601,15.2211981 L22.1776738,15.2172467 L22.968549,15.2111417 L23.6553053,15.2044089 L24.5126378,15.194355 L25.7121156,15.1775988 L26.8144888,15.1597953 L27.9661561,15.139059 L29.3426898,15.1117689 L30.7835695,15.0806473 L30.8927009,15.077654 C30.1594837,11.2855428 27.7369415,8.06146773 24.4034824,6.21001813 C24.2341842,9.31461468 21.6095288,11.7799353 18.3966942,11.7799353 C15.073857,11.7799353 12.3801653,9.14290694 12.3801653,5.88996764 C12.3801653,2.63702833 15.073857,0 18.3966942,0 Z M5.51713943,12.82037 L5.47350129,12.9296024 C4.92109437,14.3670341 4.62809917,15.9101483 4.62809917,17.5 C4.62809917,24.6627221 10.5594012,30.4692557 17.8760331,30.4692557 C24.459218,30.4692557 29.9208937,25.7685111 30.9497386,19.6086879 L30.8173513,19.6118228 L29.3549145,19.6432732 L27.9579514,19.6707939 L26.7893011,19.6916507 L25.515045,19.7118021 L24.4537312,19.72621 L23.8697468,19.7330917 L22.8871057,19.7427694 L22.2158607,19.747839 L21.4440643,19.7518948 L20.9499521,19.7533697 L20.338151,19.7538323 L19.6318946,19.7526032 L19.075606,19.7500902 L18.4456483,19.7451097 L18.0478578,19.7405031 L17.6673644,19.734796 L17.3037844,19.7279273 L17.128217,19.7240384 L16.7892873,19.7153129 L16.4663115,19.7052731 L16.1589056,19.693858 L15.8666859,19.6810062 L15.6572561,19.670388 L15.4559906,19.6589015 L15.3262694,19.6507487 L15.1382514,19.6377579 L15.017212,19.6285785 L14.8995612,19.6189749 L14.729334,19.6037578 L14.5664614,19.5875435 L14.4618857,19.5761673 L14.3604589,19.5643288 L14.2621329,19.5520205 L14.1668597,19.5392346 L14.0745914,19.5259635 C14.0594611,19.5237107 14.044454,19.5214375 14.0295691,19.5191436 L13.9417182,19.5051304 L13.8567523,19.4906129 L13.7746232,19.4755835 L13.6952832,19.4600346 L13.6186842,19.4439584 L13.5447782,19.4273474 L13.4735172,19.4101939 L13.4048534,19.3924904 L13.3387386,19.374229 L13.3066221,19.3648868 L13.3066221,19.3648868 L13.244241,19.3457745 L13.2312727,19.341521 L13.1035621,19.3044737 C9.30796751,18.1788956 6.75510075,15.9636594 5.51713943,12.82037 Z M18.3966942,4.53074434 C17.6298856,4.53074434 17.0082645,5.13928934 17.0082645,5.88996764 C17.0082645,6.64064594 17.6298856,7.24919094 18.3966942,7.24919094 C19.1635028,7.24919094 19.785124,6.64064594 19.785124,5.88996764 C19.785124,5.13928934 19.1635028,4.53074434 18.3966942,4.53074434 Z" id="Combined-Shape" fill="#701EB1"></path>
                            <path d="M16.5912638,2.09223354 C16.6893661,0.843227274 17.7892612,-0.0903764441 19.0479484,0.00697126883 C28.203257,0.715049008 35.3181818,8.31248831 35.3181818,17.4767297 C35.3181818,27.1545647 27.4119375,35 17.6590909,35 C7.9062443,35 0,27.1545647 0,17.4767297 C0,12.6894478 1.9470065,8.20373483 5.33332075,4.92807797 C6.23735553,4.05358509 7.68463179,4.07189687 8.56590276,4.96897848 C9.43704417,5.85574881 9.42902536,7.26926138 8.55550782,8.146322 L8.52468523,8.17669786 C6.01227943,10.6070037 4.57193292,13.9254215 4.57193292,17.4767297 C4.57193292,24.6489763 10.4312531,30.463231 17.6590909,30.463231 C24.8869287,30.463231 30.7462489,24.6489763 30.7462489,17.4767297 C30.7462489,10.7537292 25.5774061,5.16711981 18.8956262,4.5472818 L18.6926887,4.53002306 C17.4340016,4.43267535 16.4931616,3.3412398 16.5912638,2.09223354 Z" id="Path-Copy-3" fill="#EB75C2"></path>
                        </g>
                        <path d="M50.8237705,32 C51.8688525,32 52.8370902,31.80785 53.7284836,31.4235501 C54.619877,31.0392501 55.3422131,30.5096661 55.8954918,29.8347979 L55.8954918,29.8347979 L55.8954918,31.8031634 L60.2295082,31.8031634 L60.2295082,16.2249561 L55.8954918,16.2249561 L55.8954918,24.801406 C55.8954918,26.0386643 55.557377,26.990041 54.8811475,27.655536 C54.204918,28.321031 53.272541,28.6537786 52.0840164,28.6537786 C50.9159836,28.6537786 49.9938525,28.321031 49.317623,27.655536 C48.6413934,26.990041 48.3032787,26.0386643 48.3032787,24.801406 L48.3032787,24.801406 L48.3032787,16.2249561 L44,16.2249561 L44,25.3637961 C44,26.7510252 44.2920082,27.9461043 44.8760246,28.9490334 C45.460041,29.9519625 46.2643443,30.7111892 47.2889344,31.2267135 C48.3135246,31.7422378 49.4918033,32 50.8237705,32 Z M68.7745902,31.8031634 L68.7745902,24.0421793 C68.7745902,22.5987112 69.1178279,21.5864089 69.8043033,21.0052724 C70.4907787,20.4241359 71.5102459,20.1335677 72.8627049,20.1335677 L72.8627049,20.1335677 L74,20.1335677 L74,16 C72.852459,16 71.8329918,16.2343292 70.9415984,16.7029877 C70.0502049,17.1716462 69.3278689,17.8183948 68.7745902,18.6432337 L68.7745902,18.6432337 L68.7745902,16.2249561 L64.4713115,16.2249561 L64.4713115,31.8031634 L68.7745902,31.8031634 Z" id="ur" fill="#EB75C2" fill-rule="nonzero"></path>
                        <path d="M40.1056642,74 L42.6421306,66.769671 L57.9712098,66.769671 L60.5076761,74 L68.6684809,74 L54.8281971,36 L45.8402838,36 L32,74 L40.1056642,74 Z M55.875868,60.6809728 L44.7374723,60.6809728 L50.3066702,44.806867 L55.875868,60.6809728 Z M82.1100559,74 C86.1536979,74 89.7102649,73.2207916 92.7797568,71.6623748 C95.8492487,70.103958 98.2202933,67.9022413 99.8928907,65.0572246 C101.565488,62.2122079 102.401787,58.8869814 102.401787,55.0815451 C102.401787,51.2761087 101.565488,47.9327611 99.8928907,45.0515021 C98.2202933,42.1702432 95.8492487,39.9504053 92.7797568,38.3919886 C89.7102649,36.8335718 86.1536979,36.0543634 82.1100559,36.0543634 L82.1100559,36.0543634 L68.6557562,36.0543634 L68.6557562,74 L82.1100559,74 Z M81.8343531,67.5307582 L76.3754364,67.5307582 L76.3754364,42.4692418 L81.8343531,42.4692418 C85.8779951,42.4692418 89.0026275,43.583691 91.2082504,45.8125894 C93.4138734,48.0414878 94.5166848,51.1311397 94.5166848,55.0815451 C94.5166848,59.0319504 93.4138734,62.0944206 91.2082504,64.2689557 C89.0026275,66.4434907 85.8779951,67.5307582 81.8343531,67.5307582 L81.8343531,67.5307582 Z M108.730228,74 L111.266694,66.769671 L126.595773,66.769671 L129.13224,74 L137.293045,74 L123.452761,36 L114.464847,36 L100.624564,74 L108.730228,74 Z M124.500432,60.6809728 L113.362036,60.6809728 L118.931234,44.806867 L124.500432,60.6809728 Z M145,74 L145,46.3219634 L137.28032,46.3219634 L137.28032,74 L145,74 Z" id="KADAI" fill="#EB75C2" fill-rule="nonzero"></path>
                        <polygon id="K" fill="#EB75C2" fill-rule="nonzero" points="9.60070053 74 9.60070053 57.0687679 23.3905429 74 33 74 16.9299475 54.8366762 32.5656743 36 23.3905429 36 9.60070053 53.0401146 9.60070053 36 2 36 2 74"></polygon>
                        <circle id="Oval" fill="#701EB1" cx="141" cy="43" r="7"></circle>
                    </g>
                </g>
            </g>
        </g>
    </g>
</svg>